<?xml version="1.0" encoding="utf-8"?>
<!-- Generator: Adobe Illustrator 19.0.0, SVG Export Plug-In . SVG Version: 6.00 Build 0)  -->
<svg version="1.1" id="Capa_1" xmlns="http://www.w3.org/2000/svg" xmlns:xlink="http://www.w3.org/1999/xlink" x="0px" y="0px"
	 viewBox="166.6 -126 430.8 512" style="enable-background:new 166.6 -126 430.8 512;" xml:space="preserve">
<style type="text/css">
	.st0{fill:#5B4962;}
</style>
<g>
	<path class="st0" d="M309.7,30.9c4.1,0,7.5-3.4,7.5-7.5V9.5c0-4.1-3.4-7.5-7.5-7.5s-7.5,3.4-7.5,7.5v13.9
		C302.2,27.6,305.5,30.9,309.7,30.9z"/>
	<path class="st0" d="M454.3,30.9c4.1,0,7.5-3.4,7.5-7.5V9.5c0-4.1-3.4-7.5-7.5-7.5s-7.5,3.4-7.5,7.5v13.9
		C446.8,27.6,450.2,30.9,454.3,30.9z"/>
	<path class="st0" d="M357.3,26.8c-2.7,3.1-2.4,7.9,0.7,10.6c3.1,2.7,7.9,2.4,10.6-0.7c7.1-8.2,19.7-8.1,26.8,0
		c2.7,3.1,7.5,3.4,10.6,0.7c3.1-2.7,3.4-7.5,0.7-10.6C393.7,11.8,370.4,11.8,357.3,26.8z"/>
	<path class="st0" d="M266.6-104.8c-1-1.1-1.8-2.4-2.2-3.8c-3.4-12.4-16.4-19.9-28.9-16.7c-1.4,0.4-2.9,0.4-4.4,0
		c-12.5-3.2-25.4,4.3-28.9,16.7c-0.1,0.3-0.5,2.1-2.2,3.8c-9,9.2-9,24.1,0,33.3c1,1.1,1.8,2.4,2.2,3.8c3.4,12.4,16.4,19.9,28.9,16.7
		c0.3,0,2-0.6,4.4,0c12.7,3.2,25.5-4.3,28.9-16.7c0.4-1.4,1.2-2.7,2.2-3.8C275.6-80.6,275.6-95.6,266.6-104.8 M255.9-82
		c-2.8,2.9-4.9,6.4-5.9,10.3c-1.3,4.7-6.1,7.4-10.7,6.2c-6.6-1.7-12,0-11.9,0c-4.6,1.2-9.4-1.6-10.6-6.2c-1.1-3.9-3.1-7.4-5.9-10.3
		c-3.3-3.4-3.3-8.9,0-12.3c4.7-4.8,6-10.4,6-10.3c1.3-4.6,6.1-7.3,10.7-6.1c3.9,1,8,1,11.9,0c4.6-1.2,9.4,1.5,10.7,6.2
		c1.1,3.9,3.1,7.4,5.9,10.3C259.2-90.9,259.2-85.3,255.9-82z"/>
	<path class="st0" d="M597.4,102.7c0-16.2-8.7-30.3-21.6-38.2c-1.1-26.2-18.2-48.8-43.2-57c-1.4-4.2-3.2-8.2-5.5-12
		c13.5-4,16.4-16.6,16.3-16.5c0.4-1.4,1.2-2.7,2.2-3.8c9-9.2,9-24.1,0-33.3c-1-1.1-1.8-2.4-2.2-3.8c-3.4-12.4-16.4-19.9-28.9-16.7
		c-1.5,0.4-3,0.4-4.4,0c-12-3.3-25.4,3.9-28.9,16.7c-0.1,0.3-0.5,2.1-2.2,3.8c-5.9,6-7.9,14.5-6.1,22.2c-3.4,0-6.7,0.2-10.1,0.8
		c-19.8-24-54.1-30-80.9-14.1c-26.7-15.9-61.1-9.9-80.9,14.1c-30.4-4.7-60,13.4-69.7,42.6c-25,8.2-42.1,30.8-43.2,57
		c-12.9,7.8-21.6,22-21.6,38.2c0,18.5,11.4,34.5,27.5,41.2L220.6,322c5.5,36.9,37.3,64,74.2,64c42.2,0,154,0,177.4-0.1
		c35.9-1.5,65.9-28.3,71.2-63.9l26.5-178.1C586,137.2,597.4,121.3,597.4,102.7L597.4,102.7z M489.8-47.6c4.7-4.8,6-10.4,6-10.3
		c1.3-4.6,6-7.3,10.6-6.1c0.8,0.1,5.6,1.6,11.9,0c0,0,0,0,0,0c4.6-1.2,9.4,1.6,10.6,6.2c1.1,3.9,3.1,7.4,5.9,10.3
		c3.3,3.4,3.3,8.9,0,12.3c-2.8,2.9-4.9,6.4-5.9,10.3c-1.5,4.9-6.3,7.3-10.6,6.2c-4.6-1.2-8.2-0.9-12.8,0.2c-5.3,0.8-8.3-3.4-8.2-3.3
		c-1.3-1.7-1.5-3.1-2-4.4c-1.1-3.2-3-6.4-5.5-9C486.5-38.7,486.5-44.2,489.8-47.6L489.8-47.6z M203.9,58.7
		c3.3-18.1,16.7-33,35.2-37.9l0.2,0c5.3-1.4,5.5-6.6,6.1-7.8c7.2-23.1,30.6-37.4,54.4-33.2c1.4,0,6.4,2.3,10.1-2.1l2.7-3.3
		c15.2-18.5,41.2-23,61.8-10.8l3.7,2.2c2.4,1.4,5.3,1.4,7.7,0l3.7-2.2c20.6-12.3,46.6-7.7,61.8,10.8l2.7,3.3
		c3.6,4.4,8.8,2.1,10.1,2.1c5.8-1,11.7-1,17.4,0.1c3.7,11.3,15.6,18.5,27.6,16c8,9.3,9.7,18.4,10.3,19.9c0.7,2.4,2.6,4.3,5.5,5.1
		c18.5,4.8,31.9,19.7,35.2,37.9c-2.2-0.4-4.9-0.6-7.3-0.6C195.9,58.2,209.5,57.8,203.9,58.7L203.9,58.7z M181.6,102.7
		c0-12,7.2-22.4,17.6-27c8.2-3.7-8.1-2.5,353.7-2.6c16.2,0,29.6,13.2,29.6,29.6c0,13.5-9.1,24.9-21.5,28.4
		c-6.5,1.9,15.3,1.1-349.8,1.1C193.5,131.9,181.6,118,181.6,102.7z M408.4,371h-52.8c-0.1-2.3-5.5-213.1-5.8-223.7h64.3
		C414.1,150.2,408.7,356.9,408.4,371z M235.5,319.8l-25.7-172.5c1.5,0-0.5,0,51.6,0l11.8,117.6c0.4,4.1,4.1,7.1,8.2,6.7
		c4.1-0.4,7.1-4.1,6.7-8.2l-11.7-116.1h58.4c0.1,2.3,5.5,213.1,5.8,223.7h-41.7l-7.8-77.6c-0.4-4.1-4.1-7.1-8.2-6.7
		c-4.1,0.4-7.1,4.1-6.7,8.2l7.5,75.1C258.9,365.3,239.3,345.4,235.5,319.8L235.5,319.8z M554.2,147.3l-25.7,172.5
		c-3.8,25.6-23.5,45.5-48.3,50.2l13.9-138.8c0.4-4.1-2.6-7.8-6.7-8.2c-4.1-0.4-7.8,2.6-8.2,6.7L465.1,371h-41.7
		c0.1-2.9,5.4-209.6,5.8-223.7h58.4l-5.3,52.4c-0.5,5.4,4.6,9.5,9.7,7.9c2.8-0.9,4.9-3.3,5.2-6.4l5.4-53.9
		C555.7,147.3,552.9,147.3,554.2,147.3L554.2,147.3z"/>
</g>
</svg>
