<?xml version="1.0" encoding="utf-8"?>
<!-- Generator: Adobe Illustrator 19.0.0, SVG Export Plug-In . SVG Version: 6.00 Build 0)  -->
<svg version="1.1" id="Layer_1" xmlns="http://www.w3.org/2000/svg" xmlns:xlink="http://www.w3.org/1999/xlink" x="0px" y="0px"
	 viewBox="0 0 311.2 94.1" style="enable-background:new 0 0 311.2 94.1;" xml:space="preserve">
<style type="text/css">
	.st0{fill:#FFFFFF;}
</style>
<g id="XMLID_15_">
	<path id="XMLID_16_" class="st0" d="M0,86.9c0-2.9,1.6-7.5,4.7-13.7C7.8,67.1,11.9,60,17.1,52C12.5,51.7,6.7,51.5,0,51.5
		c1.9-5,6.4-7.6,13.5-7.6c1.6,0,4.4,0.2,8.6,0.7c8.7-12.6,16.8-23.2,24.3-31.8C54,4.3,59,0,61.4,0c2,0,4.7,1.5,7.9,4.5
		c-1.6,1.2-3.8,6-6.8,14.5c-3,8.5-5.6,17.8-7.9,27.9c-2.3,10.1-3.4,18.3-3.4,24.5c0,3.1,0.3,5.4,1,6.9c0.7,1.5,1.7,2.3,3.1,2.3
		c1.9,0,4.2-1.4,6.9-4.2c2.6-2.8,5.5-7.2,8.6-13.1l2.1,2.2c-2.5,6.6-5.7,11.9-9.5,15.9c-3.9,4-7.9,6-12.1,6c-3.6,0-6.2-1.6-7.8-4.7
		c-1.6-3.1-2.4-7.6-2.4-13.4c0-3.8,0.5-8.6,1.5-14.4c-4-0.6-9.5-1.4-16.6-2.2c-7.2,12.8-14,26.6-20.5,41.4C1.8,92.3,0,89.9,0,86.9z
		 M49.1,29c2.2-7,4.5-13.2,6.9-18.7c-3.4,2.7-7.4,7.2-12,13.5c-4.6,6.3-9.4,13.7-14.4,22.3l8.7,1.9c2.3,0.6,4.1,1,5.4,1.3
		C45,42.7,46.9,36,49.1,29z"/>
	<path id="XMLID_19_" class="st0" d="M121.7,85.1c-1.6-1.7-2.3-3.9-2.3-6.5c0-1.2,0.2-2.6,0.5-4.1s0.8-2.9,1.2-4.2
		c1-3.2,1.5-5.5,1.5-7c0-2.3-0.9-3.5-2.7-3.5c-1.7,0-3.7,1.2-5.9,3.7c-2.3,2.5-5.3,6.6-9.1,12.2c-0.9,1.4-2.3,3.8-4.2,7.1l-2.2,4
		c-1.4,0-2.9-0.3-4.5-0.8c-1.6-0.5-2.4-1.3-2.4-2.2c0-0.8,0.8-3.3,2.4-7.4c1.6-4,2.8-7.6,3.8-10.6c1-3,1.5-5.5,1.5-7.6
		c0-2.3-0.8-3.5-2.4-3.5c-2.1,0-4.8,1.6-8.1,4.9c-3.3,3.3-6.6,7.5-9.9,12.6c-3.3,5.1-5.8,10.1-7.6,15.1c-1.4,0-3-0.4-4.9-1.2
		c-1.9-0.8-2.9-1.4-2.9-2l7.4-29.8c0.2-0.9,1.1-1.6,2.5-2.3c1.4-0.7,2.7-1,3.9-1c1.2,0,2.1,0.3,2.9,1c0.7,0.7,1.1,1.6,1.1,2.8
		c0,1.2-0.5,4-1.6,8.4c3.7-5.1,7.6-9.4,11.5-12.7s7.7-5.1,11.2-5.1c2.6,0,4.5,0.9,5.6,2.8c1.1,1.9,1.7,4.2,1.7,7
		c0,1.5-0.2,2.9-0.5,4.1c-0.3,1.3-0.8,3-1.5,5.2c5.4-8,11.1-12,16.9-12c2.8,0,4.8,0.8,6.1,2.5c1.3,1.7,1.9,3.7,1.9,6.2
		c0,2.5-0.8,6-2.3,10.5c-0.1,0.3-0.4,1.3-0.9,3c-0.5,1.7-0.8,3.1-0.8,4.2c0,2.1,1,3.1,2.9,3.1c2.8,0,5.5-1.8,8.2-5.4
		c2.7-3.6,5.2-7.8,7.5-12.8l2,2.4c-2.3,5.8-5.1,10.8-8.7,15c-3.5,4.2-7.6,6.3-12.2,6.3C125.5,87.6,123.3,86.8,121.7,85.1z"/>
	<path id="XMLID_21_" class="st0" d="M146.4,85.2c-2.7-2.6-4.1-6-4.1-10.1c0-4.5,1.5-9.4,4.5-14.6s6.9-9.6,11.6-13.1
		c4.7-3.5,9.4-5.3,14-5.3c2.4,0,4.4,0.6,6.1,1.8c1.6,1.2,2.4,3.2,2.4,6c0,3.7-1.4,7.2-4.3,10.5c-2.9,3.3-6.6,6-11.1,8.1
		c-4.5,2.1-9.2,3.4-13.9,4c-0.2,0.8-0.2,1.7-0.2,2.7c0,2,0.6,4,1.7,6.1c1.1,2,3.5,3,7.3,3c4.7,0,9.6-1.9,14.5-5.8
		c4.9-3.8,8.9-8.6,11.9-14.4l2.3,1.9c-3.1,7-7.5,12.6-13.3,16.9c-5.8,4.3-11.8,6.4-18,6.4C152.9,89.1,149.1,87.8,146.4,85.2z
		 M162.3,64.7c3.5-1.9,6.4-4.3,8.8-7.2c2.4-2.8,3.6-5.6,3.6-8.3c0-0.9-0.2-1.4-0.5-1.7c-0.3-0.3-0.8-0.5-1.5-0.5
		c-2.3,0-4.7,1.1-7.4,3.2c-2.7,2.1-5.1,4.8-7.4,8.1c-2.3,3.3-3.9,6.5-5,9.8C155.7,67.8,158.8,66.6,162.3,64.7z"/>
	<path id="XMLID_24_" class="st0" d="M216.3,84.1c-1.6-1.5-2.4-3.4-2.4-5.8c0-1,0.2-2.2,0.5-3.5c0.3-1.3,0.7-2.6,1.1-4
		c1.1-3.6,1.6-6.2,1.6-7.9c0-1.6-0.4-2.7-1.2-3.4c-0.8-0.7-1.7-1.1-2.9-1.1c-4.1,0-8.3,2.6-12.5,7.7c-4.2,5.2-8.7,11.7-13.5,19.6
		c-3.3,0-5.9-1.1-7.6-3.4l1-2.9c4.6-11.1,6.9-19.3,6.9-24.7c0.6-0.7,1.5-1.3,2.7-1.9c1.2-0.6,2.3-0.9,3.4-0.9c1.3,0,2.3,0.3,3,0.9
		c0.7,0.6,1,1.5,1,2.6c0,2.1-0.7,5.5-2,10.4c3.5-4.7,7.1-8.5,10.9-11.4c3.8-2.9,7.5-4.4,11.1-4.4c3.1,0,5.5,1.1,7.2,3.2
		c1.7,2.1,2.6,4.7,2.6,7.6c0,1.7-0.2,3.3-0.6,4.9c-0.4,1.6-1.1,3.3-1.9,5.2c-1.3,3.3-2,5.7-2,7.3c0,1.2,0.3,2,0.8,2.6
		c0.5,0.5,1.2,0.8,2,0.8c2.6,0,5.3-1.8,8.3-5.3c3-3.5,5.7-7.7,8.1-12.5l2,1.6c-2.8,6.4-5.9,11.5-9.3,15.2s-7.2,5.6-11.6,5.6
		C220.2,86.3,217.9,85.6,216.3,84.1z"/>
	<path id="XMLID_26_" class="st0" d="M240.8,84.6c-1.8-1.9-2.7-4.4-2.7-7.4c0-3.1,0.9-7.3,2.6-12.6c1.7-5.3,4-10,6.6-14
		c2.7-4,5.4-6.1,8.1-6.1c1,0,1.8,0.3,2.5,0.9c0.7,0.6,1,1.4,1,2.5c0,0.7-0.3,1.6-0.9,2.9c-0.6,1.2-1.6,2.9-3,5.2
		c-2.5,4.1-4.4,7.7-5.9,10.9c-1.4,3.1-2.2,6.1-2.2,8.9c0,2.4,0.4,4,1.3,4.9c0.9,0.9,2.2,1.3,4,1.3c6.1,0,12.2-5.9,18.3-17.8l1.7,1.9
		c-2.7,6.8-6.2,12.1-10.4,15.9s-8.7,5.7-13.5,5.7C245.1,87.5,242.5,86.5,240.8,84.6z M257.9,33.9c-1.1-0.8-1.7-1.9-1.7-3.4
		c0-1.8,1-3.4,3-4.7c2-1.4,4.1-2,6.3-2c3.3,0,5,1.4,5,4.3c0,1.6-0.9,3.2-2.7,4.7c-1.8,1.5-3.7,2.3-5.8,2.3
		C260.4,35,259,34.6,257.9,33.9z"/>
	<path id="XMLID_29_" class="st0" d="M270.5,86.6c-2.5-2.6-3.8-6.4-3.8-11.5c0-5,1.3-9.8,3.8-14.5c2.5-4.7,5.8-8.6,9.8-11.5
		c4-2.9,8.1-4.4,12.2-4.4c3.1,0,5.4,0.8,6.9,2.3c1.5,1.6,2.3,3.5,2.3,5.8c0,2.3-0.6,4.5-1.7,6.5c-1.1,2-2.5,3-4.1,3
		c-1.5,0-2.7-0.7-3.6-2.2c0.9-0.6,1.8-1.7,2.6-3.3c0.8-1.6,1.2-3.4,1.2-5.5c0-1.3-0.7-2-2.2-2c-2.5,0-5.2,1.5-8,4.4
		c-2.9,2.9-5.3,6.5-7.2,10.7c-1.9,4.2-2.9,8-2.9,11.4c0,2.5,0.6,4.6,1.9,6.2c1.2,1.7,3.4,2.5,6.4,2.5c2.9,0,6-0.9,9.3-2.6
		c3.2-1.7,6.2-4.1,9-7.3c2.8-3.1,5-6.8,6.6-10.9l2.3,2.1c-1.9,4.7-4.4,8.8-7.7,12.6c-3.3,3.7-7,6.7-11,8.8c-4,2.1-8,3.2-11.9,3.2
		C276.4,90.5,273,89.2,270.5,86.6z"/>
</g>
</svg>
