<?xml version="1.0" standalone="no"?>
<!DOCTYPE svg PUBLIC "-//W3C//DTD SVG 20010904//EN"
 "http://www.w3.org/TR/2001/REC-SVG-20010904/DTD/svg10.dtd">
<svg version="1.0" xmlns="http://www.w3.org/2000/svg"
 width="700.000000pt" height="700.000000pt" viewBox="0 0 700.000000 700.000000"
 preserveAspectRatio="xMidYMid meet">
<metadata>
Created by potrace 1.11, written by Peter Selinger 2001-2013
</metadata>
<g transform="translate(0.000000,700.000000) scale(0.100000,-0.100000)"
fill="#000000" stroke="none">
<path d="M0 3500 l0 -3500 3500 0 3500 0 0 3500 0 3500 -3500 0 -3500 0 0
-3500z m5239 2911 c61 -23 182 -106 239 -164 l44 -45 -37 -48 c-199 -260 -578
-1412 -834 -2529 -124 -542 -191 -929 -232 -1340 -18 -178 -16 -562 4 -655 44
-212 111 -290 247 -290 197 0 406 181 663 576 81 124 195 321 251 433 l28 53
34 -33 c19 -18 34 -38 34 -44 0 -6 -15 -49 -34 -96 -151 -373 -347 -681 -578
-905 -202 -197 -382 -289 -584 -301 -234 -14 -389 77 -489 290 -84 177 -117
374 -117 692 1 292 34 611 101 955 l18 95 -21 7 c-36 12 -544 83 -1019 141
-26 3 -32 -4 -111 -152 -405 -755 -743 -1450 -1082 -2230 -47 -107 -87 -198
-90 -203 -8 -13 -59 22 -120 83 -164 160 -163 364 3 784 142 359 451 931 834
1545 70 113 125 208 121 211 -13 12 -364 30 -694 36 l-327 6 31 61 c64 126
201 224 386 273 91 25 110 27 332 27 172 0 268 -4 360 -17 69 -10 132 -20 142
-23 12 -4 47 41 144 183 848 1247 1732 2347 2064 2568 116 77 194 92 289 56z"/>
<path d="M4830 5923 c-98 -73 -310 -287 -436 -438 -338 -407 -754 -1032 -1167
-1755 l-106 -185 62 -13 c34 -7 242 -58 461 -112 220 -55 403 -97 408 -94 4 3
8 13 8 22 0 25 110 467 170 682 174 628 423 1349 630 1823 28 66 50 121 48
122 -2 2 -37 -21 -78 -52z"/>
</g>
</svg>
