<?xml version="1.0" encoding="utf-8"?>
<!-- Generator: Adobe Illustrator 19.0.0, SVG Export Plug-In . SVG Version: 6.00 Build 0)  -->
<svg version="1.1" id="Layer_1" xmlns="http://www.w3.org/2000/svg" xmlns:xlink="http://www.w3.org/1999/xlink" x="0px" y="0px"
	 viewBox="-253 206.5 492 289" style="enable-background:new -253 206.5 492 289;" xml:space="preserve">
<style type="text/css">
	.st0{fill:#FFFFFF;}
</style>
<g>
	<g>
		<path class="st0" d="M-7.1,495.5c7.2,0,14-2.8,19.1-7.8l219.1-219.2c5.1-5.1,7.9-11.8,7.9-19s-2.8-14-7.9-19L215,214.3
			c-5.1-5.1-11.8-7.9-19-7.9c-7.2,0-14,2.8-19,7.9L-7.1,398.4L-191,214.5c-10.5-10.5-27.6-10.5-38.1,0l-16.1,16.1
			c-5.1,5.1-7.9,11.8-7.9,19s2.8,14,7.9,19l218.9,218.9C-21.1,492.7-14.3,495.5-7.1,495.5z"/>
	</g>
</g>
</svg>
