<?xml version="1.0" encoding="utf-8"?>
<!-- Generator: Adobe Illustrator 19.0.0, SVG Export Plug-In . SVG Version: 6.00 Build 0)  -->
<svg version="1.1" id="Capa_1" xmlns="http://www.w3.org/2000/svg" xmlns:xlink="http://www.w3.org/1999/xlink" x="0px" y="0px"
	 viewBox="-243 95.2 511.8 511.8" style="enable-background:new -243 95.2 511.8 511.8;" xml:space="preserve">
<style type="text/css">
	.st0{fill:#2D2032;}
</style>
<g>
	<g>
		<path class="st0" d="M257.9,287h-469.3c-5.9,0-10.7,4.8-10.7,10.7v256c0,29.4,23.9,53.3,53.3,53.3h384c29.4,0,53.3-23.9,53.3-53.3
			v-256C268.6,291.8,263.8,287,257.9,287z M247.3,553.7c0,17.6-14.4,32-32,32h-384c-17.6,0-32-14.4-32-32V308.3h448V553.7z"/>
	</g>
</g>
<g>
	<g>
		<path class="st0" d="M268.3,188.3l-18.2-68.9c-4.2-16.7-21.3-27.3-38.3-23.4l-429.8,102c-8.4,1.9-15.6,7.1-20.1,14.4
			c-4.5,7.4-5.9,16.1-3.8,24.5l20.1,79.4c1.2,4.8,5.5,8,10.3,8c0.9,0,1.7-0.1,2.6-0.3c5.7-1.4,9.2-7.2,7.7-12.9l-1.2-4.6
			l462.5-105.1c2.8-0.7,5.3-2.4,6.8-4.9C268.6,194.1,269,191.1,268.3,188.3z M-207.4,285.8l-13.7-54.1c-0.7-2.8-0.2-5.7,1.3-8.2
			c1.5-2.5,3.9-4.2,6.8-4.8l429.8-102c0.8-0.2,1.6-0.3,2.3-0.3c4.8,0,9.2,3.3,10.4,8.2l15.4,58.3L-207.4,285.8z"/>
	</g>
</g>
<g>
	<g>
		<path class="st0" d="M-121.3,288.1c-5.3-2.6-11.6-0.5-14.3,4.8l-42.7,85.3c-2.6,5.3-0.5,11.7,4.8,14.3c1.6,0.8,3.2,1.1,4.8,1.1
			c3.9,0,7.7-2.2,9.6-5.9l42.7-85.3C-113.9,297.2-116,290.8-121.3,288.1z"/>
	</g>
</g>
<g>
	<g>
		<path class="st0" d="M-14.6,288.1c-5.3-2.6-11.7-0.5-14.3,4.8l-42.7,85.3c-2.6,5.3-0.5,11.7,4.8,14.3c1.6,0.8,3.2,1.1,4.8,1.1
			c3.9,0,7.7-2.2,9.5-5.9l42.7-85.3C-7.2,297.2-9.4,290.8-14.6,288.1z"/>
	</g>
</g>
<g>
	<g>
		<path class="st0" d="M92,288.1c-5.2-2.6-11.6-0.5-14.3,4.8L35,378.2c-2.6,5.3-0.5,11.7,4.8,14.3c1.6,0.8,3.2,1.1,4.8,1.1
			c3.9,0,7.7-2.2,9.5-5.9l42.7-85.3C99.4,297.2,97.3,290.8,92,288.1z"/>
	</g>
</g>
<g>
	<g>
		<path class="st0" d="M198.7,288.1c-5.3-2.6-11.6-0.5-14.3,4.8l-42.7,85.3c-2.6,5.3-0.5,11.7,4.8,14.3c1.6,0.8,3.2,1.1,4.8,1.1
			c3.9,0,7.7-2.2,9.5-5.9l42.7-85.3C206.1,297.2,204,290.8,198.7,288.1z"/>
	</g>
</g>
<g>
	<g>
		<path class="st0" d="M257.9,372.3h-469.3c-5.9,0-10.7,4.8-10.7,10.7s4.8,10.7,10.7,10.7h469.3c5.9,0,10.7-4.8,10.7-10.7
			S263.8,372.3,257.9,372.3z"/>
	</g>
</g>
<g>
	<g>
		<path class="st0" d="M-108.2,268.4l-73.5-73.5c-4.2-4.2-10.9-4.2-15.1,0c-4.2,4.2-4.2,10.9,0,15.1l73.5,73.5
			c2.1,2.1,4.8,3.1,7.6,3.1s5.5-1,7.5-3.1C-104.1,279.3-104.1,272.5-108.2,268.4z"/>
	</g>
</g>
<g>
	<g>
		<path class="st0" d="M-3.9,244.7l-73.5-73.5c-4.2-4.2-10.9-4.2-15.1,0c-4.2,4.2-4.2,10.9,0,15.1l73.5,73.5
			c2.1,2.1,4.8,3.1,7.6,3.1s5.5-1,7.6-3.1C0.3,255.6,0.3,248.8-3.9,244.7z"/>
	</g>
</g>
<g>
	<g>
		<path class="st0" d="M100.4,221L27,147.5c-4.2-4.2-10.9-4.2-15.1,0c-4.2,4.2-4.2,10.9,0,15.1l73.4,73.5c2.1,2.1,4.8,3.1,7.6,3.1
			s5.5-1,7.5-3.1C104.6,231.9,104.6,225.1,100.4,221z"/>
	</g>
</g>
<g>
	<g>
		<path class="st0" d="M204.6,197.3l-73.4-73.5c-4.2-4.2-10.9-4.2-15.1,0s-4.2,10.9,0,15.1l73.4,73.5c2.1,2.1,4.8,3.1,7.6,3.1
			s5.5-1,7.5-3.1C208.8,208.2,208.8,201.5,204.6,197.3z"/>
	</g>
</g>
</svg>
