<?xml version="1.0" encoding="utf-8"?>
<!-- Generator: Adobe Illustrator 19.0.0, SVG Export Plug-In . SVG Version: 6.00 Build 0)  -->
<svg version="1.1" id="Layer_1" xmlns="http://www.w3.org/2000/svg" xmlns:xlink="http://www.w3.org/1999/xlink" x="0px" y="0px"
	 viewBox="-253 105 492 492" style="enable-background:new -253 105 492 492;" xml:space="preserve">
<style type="text/css">
	.st0{fill:#2D2032;}
</style>
<g>
	<g>
		<path class="st0" d="M129.7,331.8L-89.3,112.9c-5.1-5.1-11.8-7.9-19-7.9s-14,2.8-19,7.9l-16.1,16.1c-10.5,10.5-10.5,27.6,0,38.1
			L40.4,350.9L-143.7,535c-5.1,5.1-7.9,11.8-7.9,19c0,7.2,2.8,14,7.9,19l16.1,16.1c5.1,5.1,11.8,7.9,19,7.9s14-2.8,19-7.9L129.7,370
			c5.1-5.1,7.9-11.9,7.8-19.1C137.5,343.7,134.8,336.9,129.7,331.8z"/>
	</g>
</g>
</svg>
