<?xml version="1.0" encoding="utf-8"?>
<!-- Generator: Adobe Illustrator 19.0.0, SVG Export Plug-In . SVG Version: 6.00 Build 0)  -->
<svg version="1.1" id="Layer_1" xmlns="http://www.w3.org/2000/svg" xmlns:xlink="http://www.w3.org/1999/xlink" x="0px" y="0px"
	 viewBox="-117.1 -31 427.3 511.9" style="enable-background:new -117.1 -31 427.3 511.9;" xml:space="preserve">
<style type="text/css">
	.st0{fill:#2D2032;}
</style>
<path class="st0" d="M93.4,215.6c33.9,0,63.2-12.2,87.2-36.1c24-24,36.1-53.3,36.1-87.2s-12.2-63.2-36.1-87.2
	C156.6-18.8,127.2-31,93.4-31C59.5-31,30.2-18.8,6.2,5.1s-36.1,53.3-36.1,87.2s12.2,63.2,36.1,87.2S59.5,215.6,93.4,215.6z"/>
<path class="st0" d="M309.1,362.7c-0.7-10-2.1-20.9-4.1-32.4c-2.1-11.6-4.8-22.5-8-32.5c-3.3-10.3-7.8-20.6-13.4-30.3
	c-5.8-10.2-12.6-19-20.2-26.3c-8-7.6-17.7-13.7-29-18.2c-11.2-4.4-23.7-6.7-37-6.7c-5.2,0-10.3,2.1-20,8.5c-6,3.9-13,8.4-20.9,13.5
	c-6.7,4.3-15.8,8.3-27,11.9c-10.9,3.5-22.1,5.3-33,5.3s-22.1-1.8-33-5.3c-11.2-3.6-20.3-7.6-27-11.9c-7.8-5-14.8-9.5-20.9-13.5
	c-9.8-6.4-14.8-8.5-20-8.5c-13.3,0-25.8,2.3-37,6.7c-11.3,4.5-21,10.6-29,18.2c-7.6,7.3-14.4,16.1-20.2,26.3
	c-5.6,9.8-10.1,20-13.4,30.3c-3.2,10-5.9,20.9-8,32.5c-2.1,11.5-3.5,22.4-4.1,32.4c-0.7,9.8-1,20-1,30.2c0,26.7,8.5,48.4,25.3,64.3
	c16.5,15.7,38.4,23.7,65.1,23.7h246.5c26.6,0,48.5-8,65.1-23.7c16.8-15.9,25.3-37.6,25.3-64.3C310.2,382.6,309.8,372.5,309.1,362.7z
	"/>
</svg>
