<?xml version="1.0" encoding="utf-8"?>
<!-- Generator: Adobe Illustrator 19.0.0, SVG Export Plug-In . SVG Version: 6.00 Build 0)  -->
<svg version="1.1" id="Layer_1" xmlns="http://www.w3.org/2000/svg" xmlns:xlink="http://www.w3.org/1999/xlink" x="0px" y="0px"
	 viewBox="6 -6 512 512" style="enable-background:new 6 -6 512 512;" xml:space="preserve">
<style type="text/css">
	.st0{opacity:0.5;}
	.st1{fill:#FFFFFF;}
</style>
<g class="st0">
	<g>
		<path class="st1" d="M9.1,502.9c2.1,2.1,4.8,3.1,7.5,3.1s5.5-1,7.5-3.1L180,347.1c35.9,32.4,83.3,52.2,135.3,52.2
			c111.8,0,202.7-90.9,202.7-202.7S427.1-6,315.3-6S112.7,84.9,112.7,196.7c0,52,19.9,99.4,52.2,135.3L9.1,487.8
			C5,492,5,498.7,9.1,502.9z M134,196.7c0-100,81.4-181.3,181.3-181.3s181.3,81.3,181.3,181.3S415.3,378,315.3,378
			S134,296.7,134,196.7z"/>
	</g>
</g>
</svg>
