<?xml version="1.0" encoding="utf-8"?>
<!-- Generator: Adobe Illustrator 19.0.0, SVG Export Plug-In . SVG Version: 6.00 Build 0)  -->
<svg version="1.1" id="Capa_1" xmlns="http://www.w3.org/2000/svg" xmlns:xlink="http://www.w3.org/1999/xlink" x="0px" y="0px"
	 viewBox="-611 480.9 360 512.1" style="enable-background:new -611 480.9 360 512.1;" xml:space="preserve">
<style type="text/css">
	.st0{fill:#5B4962;}
</style>
<g>
	<g>
		<path class="st0" d="M-431,480.9c-99.3,0-180,80.7-180,180c0,33.5,9.3,66.3,26.9,94.7l142.9,230.3c2.7,4.4,7.6,7.1,12.7,7.1h0.1
			c5.2,0,10.1-2.8,12.8-7.3l139.2-232.5c16.6-27.8,25.4-59.7,25.4-92.2C-251,561.6-331.7,480.9-431,480.9z M-302.1,737.7
			l-126.6,211.4l-129.9-209.4c-14.7-23.6-22.6-50.8-22.6-78.8c0-82.7,67.5-150.2,150.2-150.2s150.1,67.5,150.1,150.2
			C-280.9,688-288.3,714.6-302.1,737.7z"/>
	</g>
</g>
<g>
	<g>
		<path class="st0" d="M-431,570.9c-49.6,0-90,40.4-90,90c0,49.3,39.7,90,90,90c50.9,0,90-41.2,90-90
			C-341,611.3-381.4,570.9-431,570.9z M-431,721.1c-33.3,0-60.2-27-60.2-60.2c0-33.1,27.1-60.2,60.2-60.2s60.1,27.1,60.1,60.2
			C-370.9,693.6-397.2,721.1-431,721.1z"/>
	</g>
</g>
</svg>
